# xmcd
#
# Track frame offsets:
#  150
#  21413
#  43748
#  63938
#  77786
#  100786
#  119693
#  141123
#  161966
#  184256
#  204140
#  228999
#  250136
#  270541
#  287843
#
# Disc length: 4187 seconds
#
# Revision: 0
# Processed by: cddbd v1.4PL0 Copyright (c) Steve Scherf et al.
# Submitted via: AltoMP3_Maker 3.0
#
DISCID=d810590f
DTITLE=迪克牛仔 - 天天想恋爱
DYEAR=1900
DGENRE=
TTITLE0=天天想恋爱
TTITLE1=有多少爱可以重来
TTITLE2=梦醒时分
TTITLE3=沧海一声笑
TTITLE4=爱如潮水
TTITLE5=无力去爱谁
TTITLE6=三万英尺
TTITLE7=爱无罪
TTITLE8=管他谁爱谁
TTITLE9=玛丽亚
TTITLE10=浪人情歌
TTITLE11=第一号伤心人
TTITLE12=我这个你这样不爱的人
TTITLE13=男人真命苦
TTITLE14=一言难尽
EXTD=
EXTT0=
EXTT1=
EXTT2=
EXTT3=
EXTT4=
EXTT5=
EXTT6=
EXTT7=
EXTT8=
EXTT9=
EXTT10=
EXTT11=
EXTT12=
EXTT13=
EXTT14=
PLAYORDER=
